<?xml version="1.0" standalone="no"?><!DOCTYPE svg PUBLIC "-//W3C//DTD SVG 1.1//EN" "http://www.w3.org/Graphics/SVG/1.1/DTD/svg11.dtd"><svg t="1548153326216" class="icon" style="" viewBox="0 0 1024 1024" version="1.1" xmlns="http://www.w3.org/2000/svg" p-id="2210" xmlns:xlink="http://www.w3.org/1999/xlink" width="200" height="200"><defs><style type="text/css"></style></defs><path d="M752.355556 986.505051c-15.90303 0-31.547475-4.008081-45.511112-11.507071L512 870.141414l-194.715152 104.856566c-31.806061 16.808081-70.335354 14.739394-100.20202-5.30101-29.737374-20.428283-45.123232-56.113131-39.30505-91.79798l38.141414-227.814142-164.460606-164.331313C26.246465 460.929293 17.583838 423.951515 29.090909 390.464646c11.507071-33.357576 40.856566-57.535354 75.89495-62.448484L328.791919 294.787879l97.228283-201.955556c16.161616-32.711111 49.519192-53.39798 85.979798-53.39798 36.460606 0 69.818182 20.686869 85.979798 53.39798L695.208081 294.787879l223.80606 33.228283c35.29697 5.171717 64.387879 29.090909 75.89495 62.448484 11.507071 33.616162 2.973737 70.206061-22.367677 95.288889L807.951515 650.084848 846.092929 877.89899c5.688889 35.555556-9.567677 71.240404-39.30505 91.668687-16.032323 10.989899-35.038384 16.937374-54.432323 16.937374zM512 808.727273c4.783838 0 9.438384 1.163636 13.575758 3.490909L733.866667 924.315152c12.8 6.723232 28.315152 5.818182 40.339394-2.19798 11.377778-7.628283 17.325253-21.20404 15.127272-34.650505l-40.597979-242.553536c-1.551515-9.179798 1.422222-18.618182 8.016161-25.212121l175.191919-174.80404c9.567677-9.309091 12.8-23.272727 8.533334-35.943435-4.654545-13.058586-16.161616-22.367677-29.866667-24.177777l-238.933333-35.555556c-9.438384-1.422222-17.583838-7.369697-21.721212-15.90303L546.00404 117.785859c-6.464646-12.929293-19.652525-20.945455-34.133333-20.816162-14.480808-0.129293-27.668687 8.016162-34.133333 20.816162l-103.822222 215.660606c-4.137374 8.533333-12.282828 14.610101-21.721213 15.90303L113.389899 384.905051c-13.705051 1.939394-25.082828 11.377778-29.866667 24.30707-4.266667 12.541414-1.034343 26.505051 8.533334 35.814142L267.119192 619.959596c6.593939 6.593939 9.567677 15.90303 8.016162 25.082828L234.537374 887.466667c-2.19798 13.575758 3.749495 27.151515 15.127272 34.779798 11.636364 7.886869 27.668687 8.921212 40.339394 2.068687l208.161617-112.09697c4.39596-2.327273 9.050505-3.490909 13.834343-3.490909z m0 0" fill="#707070" p-id="2211"></path></svg>